<?xml version="1.0" standalone="no"?>
<!DOCTYPE svg PUBLIC "-//W3C//DTD SVG 20010904//EN" "http://www.w3.org/TR/2001/REC-SVG-20010904/DTD/svg10.dtd">
<svg version="1.0" xmlns="http://www.w3.org/2000/svg"
    width="1099.000000pt" height="1099.000000pt" viewBox="0 0 1099.000000 1099.000000"
    preserveAspectRatio="xMidYMid meet">
    <metadata> Created by potrace 1.14, written by Peter Selinger 2001-2017 </metadata>
    <g transform="translate(0.000000,1099.000000) scale(0.100000,-0.100000)"
        fill="#FF4C00" stroke="none">
        <path
            d="M1619 10980 c-4 -33 1 -6812 5 -6885 7 -107 14 -188 21 -245 3 -19 7
-55 10 -80 3 -25 7 -56 10 -70 3 -14 7 -41 9 -60 7 -57 56 -289 77 -370 11
-41 27 -97 34 -125 54 -202 162 -479 281 -720 141 -289 308 -550 521 -815 105
-131 424 -462 532 -551 29 -24 63 -52 75 -63 11 -10 37 -30 56 -45 19 -14 37
-28 40 -31 3 -3 39 -30 80 -61 456 -338 962 -580 1505 -719 83 -21 177 -43
210 -49 33 -6 71 -13 85 -16 34 -8 207 -35 250 -40 19 -2 62 -7 95 -10 33 -3
80 -8 105 -11 25 -3 881 -7 1903 -8 l1857 -3 0 1012 0 1013 -1762 1 c-970 0
-1790 3 -1823 6 -568 45 -1068 273 -1468 669 -92 92 -220 242 -262 308 -5 9
-25 37 -42 62 -18 26 -33 49 -33 50 0 2 -17 33 -38 67 -46 77 -123 233 -137
279 -1 3 -6 16 -12 30 -14 32 -57 152 -59 165 -1 6 -7 30 -15 55 -16 59 -15
52 -37 160 -11 52 -23 122 -27 155 -4 33 -9 76 -12 95 -3 19 -6 1114 -7 2433
l-2 2397 2868 0 2868 0 -2 1013 -3 1012 -3877 0 c-2133 1 -3878 -2 -3879 -5z" />
        <path
            d="M4479 8195 c-3 -144 2 -3955 6 -3995 10 -103 19 -160 40 -240 20 -76
61 -204 73 -226 6 -11 27 -53 47 -94 113 -232 327 -470 550 -611 179 -114 393
-197 575 -224 25 -4 70 -11 100 -15 30 -5 832 -9 1783 -9 l1727 -1 0 2718 0
2718 -1013 0 -1013 0 0 -1703 1 -1703 -90 0 c-392 -2 -747 0 -753 4 -4 2 -7
765 -7 1696 0 930 -2 1695 -5 1699 -3 4 -458 7 -1012 7 l-1008 0 -1 -21z" />
    </g>
</svg>